# xmcd
#
# Track frame offsets:
# 750
# 19267
# 38061
# 63494
# 86640
# 101018
# 119592
# 143650
# 160436
# 182173
# 201026
# 231148
# 238648
#
# Disc length: 3189 seconds
#
#
# Revision: 0
# Processed by: cddbd v1.5.2PL0 Copyright (c) Steve Scherf et al.
# Submitted via: FreeRIP 2.951 
#
DISCID=b10c6b0d
DTITLE=Deák Bill Gyula - Bill Kapitány Blues Cirkusza
DYEAR=1986
DGENRE=Blues
TTITLE0=Bill Kapitány blues I.
TTITLE1=Romalány blues
TTITLE2=Rekedten száll az ének
TTITLE3=Kocsma blues
TTITLE4=Halálos tánc
TTITLE5=Fekete vonat blues
TTITLE6=Bill Kapitány Blues Cirkusza
TTITLE7=Elképesztõ blues
TTITLE8=A gyermekem
TTITLE9=Üvöltsön a szél
TTITLE10=Bill Kapitány blues I. (koncertfelvétel)
TTITLE11=1
TTITLE12=2
EXTD=by Lajos
EXTT0=
EXTT1=
EXTT2=
EXTT3=
EXTT4=
EXTT5=
EXTT6=
EXTT7=
EXTT8=
EXTT9=
EXTT10=
EXTT11=
EXTT12=
PLAYORDER=
